<?xml version="1.0" encoding="UTF-8"?>
<svg version="1.1" xmlns="http://www.w3.org/2000/svg" width="2000" height="2000">
<path d="M0 0 C660 0 1320 0 2000 0 C2000 660 2000 1320 2000 2000 C1340 2000 680 2000 0 2000 C0 1340 0 680 0 0 Z " fill="#001F3F" transform="translate(0,0)"/>
<path d="M0 0 C72.6 0 145.2 0 220 0 C216.39735957 1.80132022 213.15108327 2.90470029 209.3125 4.0625 C194.97280445 8.67763552 182.42197606 16.26350178 171 26 C170.32710937 26.57105469 169.65421875 27.14210938 168.9609375 27.73046875 C163.32184082 32.94470198 159.08691197 39.54310349 155 46 C154.36284159 46.93348319 154.36284159 46.93348319 153.71281129 47.88582462 C149.69123256 54.26758892 149.28831737 59.58764974 149.36076355 67.0158844 C149.35240787 68.1996373 149.3440522 69.38339021 149.33544332 70.60301441 C149.31737247 73.86664182 149.321453 77.12935143 149.3351289 80.39297163 C149.34442856 83.92051495 149.32482236 87.44791533 149.30880737 90.97541809 C149.28501239 97.07966489 149.27934724 103.18370984 149.28615379 109.28799629 C149.2959683 118.11361666 149.27819535 126.93901378 149.25378648 135.764598 C149.2149254 150.08501366 149.19823563 164.4053653 149.19555664 178.72583008 C149.19290731 192.63309014 149.17971698 206.54027504 149.15258789 220.44750977 C149.15091037 221.31413866 149.14923286 222.18076755 149.14750451 223.07365793 C149.13430229 229.85172034 149.12049062 236.62978148 149.10648644 243.40784228 C149.03805308 276.60524324 149.02275645 309.80247559 149 343 C233.81 343 318.62 343 406 343 C406.08432607 292.15421608 406.08432607 292.15421608 406.08398438 241.30859375 C406.0776819 234.44645227 406.07194078 227.58431067 406.06713867 220.72216797 C406.06651348 219.86216718 406.06588828 219.00216638 406.06524414 218.11610496 C406.05598207 204.25070692 406.07838163 190.38553287 406.11256976 176.52018164 C406.14697484 162.27960291 406.14713705 148.03931731 406.11582941 133.79873002 C406.09759623 125.01862385 406.10574317 116.23936967 406.14815276 107.45934357 C406.17471113 101.43005811 406.16786356 95.401373 406.13534261 89.37211941 C406.11757449 85.89851072 406.11396285 82.42649574 406.15022469 78.9529953 C406.34538744 58.23718539 406.34538744 58.23718539 396 41 C394.55727182 39.10814227 393.11900733 37.21286234 391.6875 35.3125 C376.42399473 17.32431354 357.60091348 7.38231776 335 1 C335 0.67 335 0.34 335 0 C407.6 0 480.2 0 555 0 C552.23095327 1.38452336 549.82997391 2.47020614 546.9453125 3.4453125 C532.78644676 8.35678896 520.57856265 14.28894746 509 24 C508.4225 24.433125 507.845 24.86625 507.25 25.3125 C501.11822178 30.08166084 496.14684989 36.47072016 492 43 C491.42040523 43.90880008 490.84081047 44.81760015 490.24365222 45.75393963 C484.33868253 56.12520976 484.00663463 65.1384379 484.1111145 76.88793945 C484.10303648 78.87821248 484.09191066 80.86847504 484.07802379 82.85871601 C484.04893703 88.29590284 484.06318274 93.7322241 484.08492732 99.16941309 C484.10081407 105.04548514 484.07629481 110.92141196 484.05706787 116.79745483 C484.02598703 128.29598988 484.03264427 139.79420457 484.05295636 151.29275203 C484.06878303 160.64014291 484.07108579 169.98746706 484.06328964 179.33486938 C484.06275495 180.00009443 484.06222025 180.66531948 484.06166935 181.35070286 C484.05948982 184.05137574 484.057261 186.75204857 484.05495101 189.45272135 C484.03355975 214.76373276 484.05291758 240.07456979 484.09062929 265.38555427 C484.12384622 287.85055407 484.12087372 310.31527606 484.08740234 332.78027344 C484.04988302 358.04631274 484.03507708 383.31219808 484.05668819 408.57826138 C484.05893306 411.27388442 484.06112295 413.96950751 484.06328964 416.66513062 C484.06384318 417.32881422 484.06439673 417.99249782 484.06496704 418.67629305 C484.07291418 428.67866268 484.06360184 438.68090626 484.04593277 448.68325806 C484.02627426 460.06163248 484.03166705 471.43966899 484.06889798 482.81800485 C484.08725991 488.62038911 484.09455898 494.42221055 484.07135391 500.2245903 C484.05041026 505.5420391 484.06209505 510.85840633 484.09919678 516.17575777 C484.10698028 518.0934653 484.10311852 520.01126525 484.08606626 521.92891276 C483.96059775 537.21818294 487.24016821 548.12965173 497.125 560.1875 C497.58672607 560.75936035 498.04845215 561.3312207 498.52416992 561.92041016 C513.76211557 580.189683 535.33451903 590.14417665 558 596 C558 596.33 558 596.66 558 597 C483.42 597 408.84 597 332 597 C334.67239029 594.32760971 336.88061009 594.21055084 340.5625 593.375 C366.3302979 586.93226636 386.93534817 570.26265608 401 548 C401.6939386 546.92468018 402.3878772 545.84936035 403.10284424 544.74145508 C406.17362666 538.46328876 405.57125035 531.50382115 405.54589844 524.6796875 C405.55470588 523.10677062 405.56525537 521.5338627 405.57739639 519.96096802 C405.60500498 515.76583643 405.60891101 511.57100273 405.60775757 507.37579346 C405.61030782 503.43271921 405.63443359 499.48988907 405.65673828 495.546875 C405.70940084 484.03132846 405.72761557 472.51564521 405.75 461 C405.8325 435.26 405.915 409.52 406 383 C321.19 383 236.38 383 149 383 C149 408.78125 149 434.5625 149 461.125 C148.979375 469.24625488 148.95875 477.36750977 148.9375 485.73486328 C148.95736305 493.05542488 148.95736305 493.05542488 148.98779297 500.37594604 C149.00099884 503.6206492 148.99205021 506.86445424 148.96923828 510.10910034 C148.94077515 514.26359123 148.95136851 518.41635166 148.98880005 522.57075286 C148.99606281 524.08555424 148.99025019 525.60049672 148.96896362 527.11516595 C148.75502523 543.46273769 156.3719719 554.12847318 167 566 C167.55042969 566.63292969 168.10085938 567.26585937 168.66796875 567.91796875 C182.95543846 583.33432495 203.27929618 590.66571126 223 596 C223 596.33 223 596.66 223 597 C148.42 597 73.84 597 -3 597 C-0.23628909 594.23628909 2.94810371 593.83491203 6.625 592.875 C20.1449681 589.10248813 32.10165842 582.88138567 43 574 C43.83917969 573.32453125 44.67835938 572.6490625 45.54296875 571.953125 C55.44221718 563.54260075 65.84874539 551.45376384 70 539 C70.10171299 536.36602438 70.14656852 533.75824075 70.14539433 531.12397957 C70.14894494 530.3089283 70.15249556 529.49387703 70.15615377 528.65412724 C70.16689383 525.89946766 70.17047116 523.14484474 70.17408752 520.39016724 C70.18024752 518.4045632 70.18682338 516.41896042 70.19378132 514.43335903 C70.2116111 508.95828037 70.22303666 503.48320404 70.233338 498.00810671 C70.24296391 493.31645579 70.2562778 488.62481823 70.26960696 483.93317659 C70.31723294 467.12474271 70.34986724 450.31628673 70.37890625 433.5078125 C70.38063873 432.51226806 70.38063873 432.51226806 70.38240622 431.49661162 C70.42811708 405.21822009 70.46774033 378.9398186 70.49443116 352.66140049 C70.50105451 346.15024335 70.50792798 339.63908647 70.51489258 333.12792969 C70.51603736 332.04873895 70.51603736 332.04873895 70.51720526 330.94774637 C70.5421368 307.6321982 70.59560405 284.31682867 70.66491084 261.00137336 C70.73604057 237.02894658 70.78109723 213.05661586 70.79241193 189.08408236 C70.79401677 185.69622072 70.79590435 182.30835929 70.79795647 178.92049789 C70.79834935 178.25375221 70.79874223 177.58700653 70.79914702 176.90005643 C70.80576171 166.84407221 70.83516831 156.78832347 70.87640572 146.73242569 C70.9233069 135.28718399 70.9431236 123.84230355 70.92752422 112.39696915 C70.920417 106.55822109 70.92623953 100.72024654 70.96710205 94.88162041 C71.00424682 89.53167839 71.00415692 84.18305068 70.97497844 78.83307122 C70.97091647 76.90223475 70.98027681 74.97131118 71.00474424 73.04062547 C71.15220667 60.65740001 69.82867136 52.8586574 62 43 C61.26068239 42.03369254 60.52136479 41.06738508 59.75964361 40.07179558 C57.89173962 37.66461657 55.96621481 35.32727622 54 33 C53.23171875 32.02804687 52.4634375 31.05609375 51.671875 30.0546875 C48.92874581 26.76991138 45.81780549 24.16927805 42.4375 21.5625 C41.82253662 21.08659424 41.20757324 20.61068848 40.57397461 20.12036133 C28.56922512 10.99031535 14.85807957 4.03226114 0 1 C0 0.67 0 0.34 0 0 Z " fill="#FDD7E5" transform="translate(721,705)"/>
<path d="M0 0 C0.76321438 -0.00144516 1.52642876 -0.00289032 2.31277084 -0.00437927 C29.08611344 -0.04515701 55.51408635 1.0949729 82.14251709 4.05010986 C85.14035346 4.37515459 88.1409475 4.66471794 91.14256287 4.95233154 C132.15184123 8.92543975 173.23018985 18.20074611 212.5625 30.3125 C213.2419165 30.52155975 213.92133301 30.73061951 214.62133789 30.9460144 C226.61806322 34.65037501 238.49809229 38.62562192 250.3125 42.875 C251.14944397 43.1758551 251.98638794 43.47671021 252.84869385 43.78668213 C280.27526811 53.67951785 306.63451862 65.32968849 332.69854736 78.38018799 C334.46125675 79.26186014 336.2264064 80.1386486 337.99169922 81.01513672 C354.03137602 89.00703143 369.33571646 97.98608862 384.54296875 107.43701172 C387.09518132 109.02223948 389.65407572 110.59522148 392.21875 112.16015625 C419.02371391 128.58806216 444.77905885 147.3162076 468.62109375 167.8046875 C471.3970394 170.17143001 474.21813193 172.46632031 477.0625 174.75 C482.44615967 179.12766195 487.50709394 183.8084118 492.57421875 188.54296875 C494.85643584 190.67166392 497.18236551 192.73064379 499.5625 194.75 C503.88294108 198.47420186 507.8368713 202.55824529 511.84228516 206.61376953 C514.61735795 209.41156887 517.38939414 212.12046155 520.4375 214.625 C523.48183119 217.1360177 525.93108106 219.97254359 528.48046875 222.9765625 C531.06309294 225.87414086 533.80009032 228.58751212 536.5625 231.3125 C540.49004055 235.19661566 544.27958668 239.12357637 547.86328125 243.33203125 C549.84280432 245.63919952 551.8889212 247.87896782 553.9375 250.125 C557.85188747 254.46328053 561.5754006 258.92653685 565.25 263.46875 C567.63549076 266.4022589 570.06454169 269.29539325 572.5 272.1875 C577.20630618 277.83362154 581.7443758 283.59213194 586.16699219 289.46191406 C587.12274089 290.7293345 588.08189867 291.99418935 589.04394531 293.25683594 C597.23893042 304.03105773 604.91231406 315.12759118 612.4375 326.375 C613.11918243 327.38975906 613.11918243 327.38975906 613.81463623 328.42501831 C615.10841126 330.35401467 616.39528021 332.28741337 617.6796875 334.22265625 C618.07273071 334.80826324 618.46577393 335.39387024 618.87072754 335.9972229 C621.5625 340.08189845 621.5625 340.08189845 621.5625 342.3125 C597.81167988 344.67233385 597.81167988 344.67233385 591.31787109 341.06591797 C587.79266975 337.76989995 585.68501061 333.68139251 583.60742188 329.37304688 C581.97058097 326.14525779 579.8420353 323.33398889 577.6875 320.4375 C576.86732217 319.28859291 576.04833576 318.13883447 575.23046875 316.98828125 C559.3854992 295.00240958 541.73576859 274.39076356 523.5625 254.3125 C522.77415771 253.43730713 521.98581543 252.56211426 521.17358398 251.66040039 C514.51942388 244.3277769 507.65036992 237.2445897 500.63647461 230.25610352 C498.86258997 228.48762781 497.09418223 226.71379956 495.32617188 224.93945312 C490.09827704 219.70849791 484.87018085 214.54235573 479.23754883 209.74243164 C476.66942444 207.55011208 474.2207399 205.23891647 471.75 202.9375 C467.17952095 198.71975913 462.4931113 194.7029736 457.64453125 190.8046875 C455.33085882 188.93380916 453.04063421 187.04518121 450.76171875 185.1328125 C440.34084402 176.40988018 429.59910557 168.23931808 418.5625 160.3125 C417.47171143 159.52746094 417.47171143 159.52746094 416.35888672 158.7265625 C350.50470165 111.4543258 278.35628245 76.54805824 200.79394531 53.28369141 C197.97040701 52.43509399 195.152797 51.56963385 192.3359375 50.69921875 C162.12994885 41.53144156 130.90019919 36.32803448 99.74365234 31.64129639 C97.84156154 31.35456695 95.94024183 31.06273159 94.0390625 30.77001953 C87.56078198 29.78276189 81.07841674 29.00359787 74.5625 28.3125 C73.41217285 28.17859863 72.2618457 28.04469727 71.07666016 27.90673828 C48.38998173 25.34110323 25.70929192 25.01673818 2.90325928 25.00197983 C0.60297678 25.00003424 -1.69728223 24.99492815 -3.99755859 24.9894104 C-29.80602231 24.94363207 -55.50180834 25.8487359 -81.125 29.1875 C-82.50118204 29.36171516 -83.87740397 29.53561553 -85.25366211 29.70922852 C-89.31730318 30.22665113 -93.3775259 30.76703244 -97.4375 31.3125 C-99.26619629 31.55637451 -99.26619629 31.55637451 -101.13183594 31.80517578 C-115.99838123 33.81643563 -130.66596701 36.3829195 -145.31298828 39.62402344 C-148.6523449 40.35984041 -151.99575078 41.07509749 -155.33984375 41.7890625 C-166.36513815 44.16342365 -177.2801848 46.64478733 -188.0546875 49.984375 C-191.35495405 51.00386938 -194.67220878 51.93098588 -198.0078125 52.828125 C-232.59424901 62.14638975 -266.02378746 75.11206521 -298.4375 90.3125 C-299.36449707 90.74320801 -300.29149414 91.17391602 -301.24658203 91.61767578 C-355.85400622 117.05335704 -407.5430374 149.51425872 -453.36328125 188.70703125 C-456.13449155 191.07114187 -458.96677189 193.35093958 -461.8125 195.625 C-467.65441833 200.3752898 -473.10116983 205.51507085 -478.56640625 210.6875 C-481.34643088 213.31511498 -484.18327819 215.86621492 -487.046875 218.40234375 C-493.01813521 223.75894045 -498.68263487 229.40697287 -504.34301758 235.08764648 C-506.1292467 236.8792595 -507.92079347 238.66543055 -509.71289062 240.45117188 C-514.97763883 245.71286268 -520.18190394 250.97203637 -525.01196289 256.6418457 C-527.20236928 259.20888645 -529.51249512 261.65577554 -531.8125 264.125 C-536.03024087 268.69547905 -540.0470264 273.3818887 -543.9453125 278.23046875 C-545.81619084 280.54414118 -547.70481879 282.83436579 -549.6171875 285.11328125 C-561.28021544 299.04654917 -571.95586935 313.63818123 -582.35595703 328.53125 C-583.25660126 329.819452 -584.17085582 331.09825608 -585.09912109 332.36669922 C-586.49490427 334.31127703 -586.49490427 334.31127703 -587.60791016 336.55908203 C-589.03269623 339.02940243 -590.15242353 340.58886671 -592.4375 342.3125 C-597.26340107 343.29311762 -601.91404429 343.06798616 -606.8125 342.8125 C-608.12089844 342.77640625 -609.42929687 342.7403125 -610.77734375 342.703125 C-614.00039345 342.60902136 -617.21743848 342.47766394 -620.4375 342.3125 C-619.07930036 338.59875731 -617.39225259 335.49306115 -615.19921875 332.20703125 C-614.55041748 331.23233887 -613.90161621 330.25764648 -613.2331543 329.25341797 C-612.53746338 328.22104004 -611.84177246 327.18866211 -611.125 326.125 C-610.04955933 324.52229248 -610.04955933 324.52229248 -608.95239258 322.88720703 C-599.31836342 308.60009451 -589.20683963 294.76145485 -578.4375 281.3125 C-577.41076172 280.01119141 -577.41076172 280.01119141 -576.36328125 278.68359375 C-572.20913312 273.4340313 -567.92438681 268.30677095 -563.58300781 263.2121582 C-560.56272313 259.6631665 -557.61048691 256.06758085 -554.6875 252.4375 C-551.66573531 248.7221274 -548.53579616 245.28954742 -545.09375 241.96484375 C-543.39983581 240.27492464 -541.8600168 238.51190094 -540.3125 236.6875 C-536.49087954 232.24052347 -532.33371845 228.15264218 -528.14404297 224.05615234 C-525.54568545 221.49850425 -523.06584367 218.93032096 -520.7578125 216.10546875 C-518.89111546 213.85851861 -517.18147081 212.08087619 -514.9375 210.25 C-511.0666308 206.95829494 -507.50468988 203.42465017 -503.9375 199.8125 C-499.89592551 195.72953243 -495.83156623 191.76382982 -491.44921875 188.04296875 C-488.95466397 185.89716726 -486.54531018 183.66664323 -484.125 181.4375 C-478.72279859 176.51631653 -473.12520102 171.89748347 -467.4375 167.3125 C-466.20744984 166.30315906 -464.9783379 165.29267402 -463.75 164.28125 C-455.16434927 157.22666268 -446.44037937 150.40533516 -437.48828125 143.82177734 C-436.12384655 142.81761838 -434.76184931 141.8101388 -433.40234375 140.79931641 C-414.20082037 126.53025266 -394.03660286 113.47112725 -373.4375 101.3125 C-372.65729492 100.85101563 -371.87708984 100.38953125 -371.07324219 99.9140625 C-341.73189477 82.6475837 -311.0584839 66.96737327 -279.4375 54.3125 C-278.59960938 53.97331543 -277.76171875 53.63413086 -276.8984375 53.28466797 C-252.78255886 43.54316906 -228.41908464 34.75696895 -203.27197266 28.08007812 C-199.68454067 27.10859784 -196.12334246 26.05751832 -192.55957031 25.00317383 C-152.85343261 13.31932846 -111.73323694 6.81840528 -70.625 2.5625 C-69.52599365 2.44688721 -68.4269873 2.33127441 -67.29467773 2.2121582 C-44.94056047 0.04343832 -22.43900803 0.03353421 0 0 Z " fill="#FCE6EF" transform="translate(999.4375,264.6875)"/>
<path d="M0 0 C23.75082012 -2.35983385 23.75082012 -2.35983385 30.24462891 1.24658203 C33.76983025 4.54260005 35.87748939 8.63110749 37.95507812 12.93945312 C39.59191008 16.16722455 41.72039831 18.97858105 43.875 21.875 C44.70043651 23.03038096 45.52463215 24.18664934 46.34765625 25.34375 C61.55898804 46.44724098 78.15772475 66.66663535 95.91796875 85.671875 C97.60024727 87.47224762 99.25565623 89.28883174 100.88891602 91.1340332 C106.94564878 97.97227988 113.30693371 104.46040873 119.77514648 110.90551758 C121.5667595 112.6917467 123.35293055 114.48329347 125.13867188 116.27539062 C130.40036268 121.54013883 135.65953637 126.74440394 141.3293457 131.57446289 C143.89638645 133.76486928 146.34327554 136.07499512 148.8125 138.375 C153.46385549 142.67195948 158.25074841 146.74190142 163.1875 150.7109375 C165.62334812 152.69344722 168.00673048 154.72408103 170.37988281 156.78076172 C179.53882149 164.68501193 189.25602519 171.83905888 199 179 C200.19544434 179.87954346 200.19544434 179.87954346 201.41503906 180.77685547 C211.4313063 188.1272675 221.56526464 195.25566047 232 202 C233.06009277 202.68545898 233.06009277 202.68545898 234.14160156 203.38476562 C294.88547762 242.50435116 360.36106335 272.63490181 430 292 C431.18843506 292.33837891 431.18843506 292.33837891 432.40087891 292.68359375 C469.8851782 303.33902908 508.33989553 309.60700319 547 314 C547.74840149 314.08677002 548.49680298 314.17354004 549.2678833 314.26293945 C611.53358608 321.43126911 675.29382518 317.87777199 737 308 C738.17136505 307.81310608 738.17136505 307.81310608 739.36639404 307.62243652 C825.53058809 293.80969905 908.96406159 262.82744647 1022 194 C1022.73379883 193.49791016 1023.46759766 192.99582031 1024.22363281 192.47851562 C1050.75323623 174.24017422 1076.14562335 154.06712471 1099.671875 132.08203125 C1101.47224762 130.39975273 1103.28883174 128.74434377 1105.1340332 127.11108398 C1111.97227988 121.05435122 1118.46040873 114.69306629 1124.90551758 108.22485352 C1126.6917467 106.4332405 1128.48329347 104.64706945 1130.27539062 102.86132812 C1135.52997877 97.60979169 1140.72251825 92.36072125 1145.54321289 86.7019043 C1147.8995289 83.94911748 1150.39671122 81.33000771 1152.875 78.6875 C1157.28226211 73.94500684 1161.49064391 69.09950345 1165.54296875 64.046875 C1167.39945546 61.74471342 1169.27495624 59.46817659 1171.17578125 57.203125 C1182.84108998 43.26937862 1193.51734091 28.6757915 1203.91845703 13.78125 C1204.81910126 12.493048 1205.73335582 11.21424392 1206.66162109 9.94580078 C1208.05740427 8.00122297 1208.05740427 8.00122297 1209.17041016 5.75341797 C1210.59519623 3.28309757 1211.71492353 1.72363329 1214 0 C1218.82590107 -0.98061762 1223.47654429 -0.75548616 1228.375 -0.5 C1229.68339844 -0.46390625 1230.99179688 -0.4278125 1232.33984375 -0.390625 C1235.56289345 -0.29652136 1238.77993848 -0.16516394 1242 0 C1240.70271769 3.50831269 1239.17456516 6.48530679 1237.09375 9.58984375 C1236.51971436 10.449729 1235.94567871 11.30961426 1235.35424805 12.19555664 C1234.74234619 13.10039795 1234.13044434 14.00523926 1233.5 14.9375 C1232.8706958 15.87392334 1232.2413916 16.81034668 1231.59301758 17.77514648 C1211.8167614 47.09074539 1189.82853741 74.8747361 1166 101 C1165.13761719 101.95519531 1164.27523438 102.91039062 1163.38671875 103.89453125 C1157.87662461 109.97693696 1152.2033462 115.83584067 1146.36328125 121.6015625 C1144.5578937 123.43380706 1142.90400243 125.23800028 1141.3125 127.25 C1138.89114992 130.12944334 1136.29488215 132.38654908 1133.4375 134.81640625 C1130.33599146 137.59484099 1127.42511493 140.53801212 1124.5 143.5 C1120.43693508 147.60473144 1116.35040632 151.59437246 1111.9453125 155.3359375 C1109.64767068 157.30139014 1107.42126877 159.33729871 1105.1875 161.375 C1100.92119411 165.22050182 1096.548307 168.89731266 1092.08203125 172.5078125 C1089.86080631 174.30393609 1087.65099623 176.11008536 1085.44921875 177.9296875 C1013.5859321 237.14098706 930.72142766 280.42296501 813.625 317.29150391 C811.16903406 317.95437715 808.72426958 318.64655682 806.28125 319.35546875 C771.22061181 329.51077818 734.25064749 335.15415528 698 339 C696.6536228 339.15083622 695.30726894 339.30188085 693.9609375 339.453125 C641.76839611 345.17536079 586.01359916 345.10682689 534 338 C533.33615295 337.91087341 532.67230591 337.82174683 531.98834229 337.72991943 C524.87632383 336.77076853 517.79587589 335.67591489 510.72412109 334.45703125 C507.11581407 333.85165836 503.49773802 333.32827648 499.87646484 332.80712891 C485.59298289 330.74797906 471.54340984 327.73485861 457.47460938 324.5546875 C454.88620393 323.97449244 452.29495885 323.40841968 449.703125 322.84375 C433.13855298 319.20373622 416.84659495 314.81463208 400.8125 309.2734375 C397.55774634 308.16094864 394.27219523 307.16533256 390.98046875 306.16796875 C383.69438364 303.93585759 376.49443373 301.48284011 369.3125 298.9375 C368.31012802 298.58242874 368.31012802 298.58242874 367.2875061 298.22018433 C353.6196583 293.35808411 340.25123935 287.90809158 327 282 C325.94538574 281.52981445 324.89077148 281.05962891 323.80419922 280.57519531 C299.15726342 269.51533684 275.05911095 257.61497893 251.89038086 243.70507812 C248.72821048 241.83966737 245.52776371 240.05116174 242.32421875 238.2578125 C234.18185794 233.65343411 226.44263469 228.47200683 218.6875 223.25 C217.21677105 222.26358903 215.74598608 221.2772616 214.27514648 220.29101562 C192.32424989 205.54937219 171.39135901 189.83938569 151 173 C150.42411133 172.5246582 149.84822266 172.04931641 149.25488281 171.55957031 C141.9305361 165.49203903 134.87098829 159.1878574 127.91796875 152.69921875 C125.64796534 150.59938962 123.3561563 148.56301006 121 146.5625 C116.68526401 142.84448282 112.72198545 138.7749751 108.7421875 134.70532227 C106.18645586 132.10848281 103.62011461 129.63037351 100.796875 127.32421875 C98.52997093 125.4404088 96.72757317 123.70006887 94.875 121.4375 C91.75357667 117.76809346 88.4263737 114.37990007 85 111 C81.09422068 107.13735199 77.32866381 103.23258079 73.765625 99.046875 C71.6056658 96.54285151 69.36512007 94.12002302 67.125 91.6875 C62.20381653 86.28529859 57.58498347 80.68770102 53 75 C51.99065906 73.76994984 50.98017402 72.5408379 49.96875 71.3125 C34.64160262 52.65938935 20.70463047 33.09878134 7.25 13.0625 C6.53360352 12.00095703 5.81720703 10.93941406 5.07910156 9.84570312 C4.4187793 8.85634766 3.75845703 7.86699219 3.078125 6.84765625 C2.48418945 5.96086182 1.89025391 5.07406738 1.27832031 4.16040039 C0 2 0 2 0 0 Z " fill="#FCE6EF" transform="translate(379,1393)"/>
</svg>
